<svg xmlns="http://www.w3.org/2000/svg" viewBox="0 0 524.61 111.71"><defs><style>.cls-a{fill:#3370b7;}</style></defs><g id="Camada_2" data-name="Camada 2"><g id="Camada_1-2" data-name="Camada 1"><path class="cls-a" d="M55.93.11C70.66.11,85.4.27,100.13,0c5.2-.08,10.28,4.38,11.12,8.3a16.47,16.47,0,0,1,.33,3.5c0,29.34-.13,58.69.13,88,.05,6.07-5.78,11.93-11.93,11.87q-44-.39-88,0c-6,.05-11.8-5.8-11.76-11.63q.35-44.2,0-88.41C0,5.79,5.76-.13,11.72,0,26.45.33,41.19.11,55.93.11Zm28.81,13.7a20,20,0,0,0-4-.91c-16.59-.05-33.17-.08-49.75,0a11.07,11.07,0,0,0-5.15,1.52c-3.25,1.86-4.35,5-4.34,8.64q0,23.49,0,47c0,6.19,0,12.37,0,18.56a9.76,9.76,0,0,0,2.63,7.15,9.94,9.94,0,0,0,7.74,3.08q27,0,54.09,0c.52,0,1-.08,1.87-.16l1.31-1.26V27.7l-4.44-2Z"/><path class="cls-a" d="M470.75,94.12H456.26c-2.27-11.26-4.53-22.41-6.78-33.57l-.56.07V94.11c-4.84.27-9.46.19-14.28,0V20h15.07c2.72,10.41,3.87,21.27,6.88,31.8V20H470.5C471.14,23,471.38,87.16,470.75,94.12Z"/><path class="cls-a" d="M161.36,52.79c5.58,1.89,7.35,6.31,7.7,10.91.5,6.76.9,13.59-1.26,20.29-1.84,5.72-6.61,10.45-13.65,10.28s-13.9,0-20.79,0c-.73-3.13-1-66.15-.35-74.1a20.58,20.58,0,0,1,2.53-.31q9.87,0,19.74,0c8,.05,12.44,4.95,13.13,12.7a77.9,77.9,0,0,1,0,10.25C168.26,47.54,166,50.73,161.36,52.79ZM148,80.35c4.75.53,6.18-.58,6.25-4.77.07-4.45,0-8.91,0-13-2.83-3.06-3.1-3.16-6.27-2.46Zm4.51-33c1.67-5,.88-10,.67-14.94-2-.84-3.56-1.05-5.06-.23V47.36Z"/><path class="cls-a" d="M233.14,55.85c0-6.7-.09-13.4,0-20.1A16.72,16.72,0,0,1,239,23a15.52,15.52,0,0,1,8.12-3.63,24.5,24.5,0,0,1,12.78,1c5.66,2.19,8.69,6.64,9.58,12.44a83.29,83.29,0,0,1,.76,11.72c.1,9.46.16,18.93,0,28.39a41.86,41.86,0,0,1-1.5,10.39A16.32,16.32,0,0,1,252.89,95c-4.21-.08-8.23-.27-12-2.76-4.05-2.69-6-6.53-6.93-10.93a53.39,53.39,0,0,1-.85-9.72c-.13-5.26,0-10.52,0-15.78ZM253,80.57c1.57-1.48,1.47-3.09,1.47-4.66q0-19.3,0-38.61a29.77,29.77,0,0,0-.27-3c-3.42-1.56-3.7-1.49-6,1.58V78C249.37,80.68,251,81.07,253,80.57Z"/><path class="cls-a" d="M509.06,94.27c-2.63-11.58-5.13-22.61-7.63-33.64l-.46,0V94.07H486.52l-.25-.27c-.09-.09-.24-.19-.24-.3q-.06-35.88-.11-71.78a12.88,12.88,0,0,1,.22-1.69H501V46.41l.45,0,6.22-26.59c5,0,10.06-.11,15.36.08-1.43,5.94-2.75,11.48-4.1,17q-1.8,7.4-3.65,14.78a12.07,12.07,0,0,0,.32,6.08c3,12,6,23.95,9,36.1-2.69.71-5.31.28-7.89.36S511.77,94.27,509.06,94.27Z"/><path class="cls-a" d="M299.64,94.09h-15V19.93c4.87-.22,9.65-.12,14.82-.07V45.64H300c2-8.46,3.95-16.93,6-25.74,2.58,0,5-.08,7.5-.1h8c-2.83,11.6-5.58,22.92-8.35,34.28,3.29,13.21,6.6,26.46,10,40H307.55c-1.63-5.14-2.6-10.63-3.88-16s-2.42-10.93-4-16.39Z"/><path class="cls-a" d="M219,56.93c0,7.1.31,14.22-.08,21.3-.38,6.8-3.27,12.49-9.91,15.29a21.21,21.21,0,0,1-16.81-.09c-4.72-1.94-7.27-5.92-8.74-10.56a22.65,22.65,0,0,1-.91-6.56c-.08-13.55-.14-27.1,0-40.65.1-10.15,6.84-15.92,16.22-16.56a23.56,23.56,0,0,1,11.5,1.81c4.26,1.89,6.45,5.27,7.8,9.34A22.45,22.45,0,0,1,219,36.8c.11,6.71,0,13.42,0,20.13ZM199.2,33.41c-1.61,1.53-1.6,3.12-1.6,4.71,0,12.62,0,25.25.05,37.87a16.22,16.22,0,0,0,.79,3.78c.09.33.48.59.83,1l3.77-.23a43.78,43.78,0,0,0,.83-5.8q.1-18.15,0-36.3a19.58,19.58,0,0,0-.76-4.17c-.08-.32-.48-.57-.73-.85Z"/><path class="cls-a" d="M377.84,81.49h15.24c.85,2.14.37,4.25.45,6.29s0,3.92,0,5.81c-2.87.82-24.82,1-30.35.38-.64-2.82-.85-67.88-.19-74,2.37,0,4.82-.09,7.27-.11s4.69,0,7.23,0c.66,4.28.23,8.33.31,12.36s0,8.16,0,12.24V81.49Z"/><path class="cls-a" d="M405.49,20h14v74.2l-7.1,0h-6.57C405.12,91,404.86,28.47,405.49,20Z"/><path class="cls-a" d="M84.47,94.26H32.65c-.66,0-1.32,0-2,0-2.93-.2-4.29-1.51-4.53-4.36,0-.52,0-1,0-1.57q0-27.42,0-54.83c0-1,.1-2,.17-3.22,2.82.23,5.37.61,7.93.62,15.39.05,30.77,0,46.15,0H84.2C84.9,34.06,85.13,87.48,84.47,94.26ZM45.27,74c5.66-6,11.2-11.2,16.55-16.77l-.33-3a3,3,0,0,0-3.43.65c-4.73,4.76-9.55,9.43-14.2,14.26a7.18,7.18,0,0,0,.07,10c2.24,2.21,7.33,2.31,9.72-.14,5.69-5.83,11.63-11.44,17.22-17.37A11.16,11.16,0,0,0,72.94,49c-3.31-7.47-12.52-9.61-18.33-4.12S43.43,56.05,37.88,61.66a4.42,4.42,0,0,0-.55,1.22l2.38,2.23c1.11-1,2.08-1.86,3-2.77,3.92-3.89,7.79-7.83,11.74-11.7a29,29,0,0,1,3.92-3.25c4.19-2.8,9-1,10.78,3.66A6.88,6.88,0,0,1,67.41,59Q59,67.32,50.65,75.68a12.92,12.92,0,0,1-2.19,1.39Z"/><path class="cls-a" d="M80.54,17.61v8.18c-3.17.68-44.22.93-52.75.3l-1.46-1.5c-.28-4.72-.28-4.72,2.09-7Z"/></g></g></svg>